<svg xmlns="http://www.w3.org/2000/svg" xmlns:xlink="http://www.w3.org/1999/xlink" fill="none" version="1.1" width="16" height="16" viewBox="0 0 16 16"><g><g><path d="M2.75,6.10573Q2.75,3.98376,4.29637,2.48693Q5.83251,1,8,1Q10.16749,1,11.70363,2.48693Q13.25,3.98376,13.25,6.10573Q13.25,9.67749,8.73301,14.6754C8.7092,14.7017,8.68395,14.7268,8.657399999999999,14.7504C8.25267,15.1106,7.63031,15.077,7.26733,14.6754Q2.75,9.6775,2.75,6.10573ZM5.86655,6.20941Q5.86655,5.33282,6.4912399999999995,4.71297Q7.11593,4.09312,7.99936,4.09312Q8.88279,4.09312,9.507480000000001,4.71297Q10.13217,5.33282,10.13217,6.20941Q10.13217,7.086,9.507480000000001,7.70585Q8.88279,8.325700000000001,7.99936,8.325700000000001Q7.11593,8.325700000000001,6.4912399999999995,7.70585Q5.86655,7.086,5.86655,6.20941Z" fill-rule="evenodd" fill="#009933" fill-opacity="1"/></g></g></svg>